<?xml version="1.0" encoding="UTF-8"?>
<svg width="87px" height="81px" viewBox="0 0 87 81" version="1.1" xmlns="http://www.w3.org/2000/svg" xmlns:xlink="http://www.w3.org/1999/xlink">
    <!-- Generator: Sketch 48.1 (47250) - http://www.bohemiancoding.com/sketch -->
    <title>Logo</title>
    <desc>Created with Sketch.</desc>
    <defs>
        <polygon id="path-1" points="0 80.4257388 86.8171995 80.4257388 86.8171995 0.67220031 0 0.67220031"></polygon>
    </defs>
    <g id="SBOTD_960_Desktop_v9_P1" stroke="none" stroke-width="1" fill="none" fill-rule="evenodd" transform="translate(-170.000000, -44.000000)">
        <g id="module" transform="translate(10.000000, 10.000000)">
            <g id="Logo" transform="translate(160.000000, 34.000000)">
                <g id="SBOTD-Logo">
                    <g transform="translate(0.000000, -0.818182)">
                        <polygon id="Fill-1" fill="#FFC10E" points="0 40.9090909 87 40.9090909 87 0.818181818 0 0.818181818"></polygon>
                        <polygon id="Fill-2" fill="#231F20" points="5.74528302 39.5595575 10.0807115 81 82.8962264 73.3465446 78.5548331 31.9090909"></polygon>
                        <polygon id="Fill-3" fill="#EC1C24" points="4.10377358 35.7284588 76.9130439 27.8181818 81.254717 70.6322097 8.44047563 78.5454545"></polygon>
                        <g id="Group-27">
                            <path d="M6.64742274,20.0413991 C6.71913709,21.6032471 7.69026899,22.1056597 9.16240534,22.1056597 C10.2052516,22.1056597 11.2919233,21.7333183 11.2919233,20.7493441 C11.2919233,19.5796957 9.38750873,19.355298 7.46416956,18.8161477 C5.56274311,18.2789832 3.57067768,17.4221015 3.57067768,14.9864924 C3.57067768,12.0852084 6.49801783,10.9542835 8.99507184,10.9542835 C11.6425268,10.9542835 14.3059183,12.2381166 14.326835,15.2297555 L10.8596451,15.2297555 C10.916419,14.0223765 9.77795356,13.6301769 8.71717872,13.6301769 C7.96716608,13.6301769 7.03886359,13.8923052 7.03886359,14.7650734 C7.03886359,15.7857853 8.95921467,15.9714595 10.8984904,16.5116028 C12.8158533,17.0487673 14.7561251,17.9413937 14.7561251,20.3422509 C14.7561251,23.7032525 11.8845627,24.7815531 8.95921467,24.7815531 C5.9033863,24.7815531 3.19616938,23.442117 3.17923682,20.0413991 L6.64742274,20.0413991 Z" id="Fill-4" fill="#231F20"></path>
                            <path d="M19.6259282,17.4020448 L21.9586368,17.4020448 C23.0383363,17.4020448 23.8242061,16.9572209 23.8242061,15.748849 C23.8242061,14.5047323 23.0223998,14.0023197 21.9586368,14.0023197 L19.6259282,14.0023197 L19.6259282,17.4020448 Z M16.1607304,11.2320998 L22.4785659,11.2320998 C24.9606794,11.2320998 27.2884079,12.3679893 27.2884079,15.5085647 C27.2884079,18.7980767 25.4088942,20.0789311 22.4785659,20.0789311 L19.6259282,20.0789311 L19.6259282,24.5023467 L16.1607304,24.5023467 L16.1607304,11.2320998 Z" id="Fill-6" fill="#231F20"></path>
                            <polygon id="Fill-8" fill="#231F20" points="28.7147267 11.2322984 39.3234712 11.2322984 39.3234712 14.0025183 32.1839087 14.0025183 32.1839087 16.3259285 38.7059309 16.3259285 38.7059309 18.9998361 32.1839087 18.9998361 32.1839087 21.5297717 39.5077372 21.5297717 39.5077372 24.5025453 28.7147267 24.5025453"></polygon>
                            <path d="M50.1032344,15.9718567 C49.9199644,14.6334135 48.8741301,13.9284472 47.4229104,13.9284472 C45.187813,13.9284472 44.3252487,15.8983813 44.3252487,17.8683155 C44.3252487,19.8382496 45.187813,21.8091767 47.4229104,21.8091767 C49.0454477,21.8091767 49.9767383,20.8788197 50.1032344,19.3547023 L53.5724164,19.3547023 C53.3871543,22.7762713 50.8731677,24.7819503 47.4936287,24.7819503 C43.4686605,24.7819503 40.8600509,21.7158431 40.8600509,17.8683155 C40.8600509,14.0227737 43.4686605,10.9536877 47.4936287,10.9536877 C50.365191,10.9536877 53.4787893,12.7766712 53.5724164,15.9718567 L50.1032344,15.9718567 Z" id="Fill-10" fill="#231F20"></path>
                            <mask id="mask-2" fill="white">
                                <use xlink:href="#path-1"></use>
                            </mask>
                            <g id="Clip-13"></g>
                            <polygon id="Fill-12" fill="#231F20" mask="url(#mask-2)" points="55.2041172 24.5020488 58.6732991 24.5020488 58.6732991 11.2318019 55.2041172 11.2318019"></polygon>
                            <path d="M64.6955121,19.5575538 L67.7144873,19.5575538 L66.243347,14.9137121 L66.2035057,14.9137121 L64.6955121,19.5575538 Z M64.4694127,11.2320005 L67.9973606,11.2320005 L72.97354,24.5022474 L69.3559492,24.5022474 L68.5342222,22.1222413 L63.8937058,22.1222413 L63.0570383,24.5022474 L59.4932333,24.5022474 L64.4694127,11.2320005 Z" id="Fill-14" fill="#231F20" mask="url(#mask-2)"></path>
                            <polygon id="Fill-15" fill="#231F20" mask="url(#mask-2)" points="73.7609039 11.2322984 77.2290898 11.2322984 77.2290898 21.5297717 83.4413458 21.5297717 83.4413458 24.5025453 73.7609039 24.5025453"></polygon>
                            <path d="M19.3380748,55.8802998 L24.3351709,55.3749084 C26.1788274,55.1872483 27.7266623,54.4336294 27.503551,52.2353258 C27.2854198,50.0787245 25.8272279,49.3499283 23.8351625,49.5514891 L18.7474274,50.0678025 L19.3380748,55.8802998 Z M18.4217247,46.8934681 L23.1558682,46.4178641 C24.7913539,46.2480764 25.9377875,45.3852373 25.7594977,43.6059419 C25.5543149,41.5843765 23.9646467,41.3272127 22.297288,41.4989862 L17.9237083,41.9368596 L18.4217247,46.8934681 Z M12.8817907,38.787348 L22.8839512,37.7755723 C26.927844,37.3704649 29.7994064,38.4011059 30.2018036,42.3509033 C30.4089784,44.4241001 29.515537,45.9859481 27.7615234,47.06127 C30.4239189,47.536874 31.9358965,49.397588 32.2058214,52.0347579 C32.6400917,56.3420031 29.1659296,58.5482499 25.3292115,58.9315133 L15.0302333,59.9710904 L12.8817907,38.787348 Z" id="Fill-16" fill="#FFFFFF" mask="url(#mask-2)"></path>
                            <path d="M52.4726967,48.1027336 C53.0523877,53.8328193 49.9417775,56.9644586 44.2584149,57.5393537 C38.5451712,58.1092842 34.9305685,55.6905546 34.3478894,49.9306816 L33.0132055,36.7627045 L37.6816109,36.2900792 L39.0192828,49.4590492 C39.2523544,51.7755091 40.0790616,53.9976424 43.8619939,53.6153719 C47.1937233,53.2867186 48.1200337,51.7228848 47.8003072,48.5743661 L46.4626353,35.4063889 L51.1380128,34.9327707 L52.4726967,48.1027336 Z" id="Fill-17" fill="#FFFFFF" mask="url(#mask-2)"></path>
                            <polygon id="Fill-18" fill="#FFFFFF" mask="url(#mask-2)" points="61.2385814 46.9848159 52.094005 34.8375506 57.3670022 34.3043577 63.1838333 42.1682077 67.2765317 33.3104545 72.4847868 32.784212 65.9229232 46.629354 66.7446502 54.7573181 62.0772409 55.2289506"></polygon>
                            <path d="M15.6213787,71.6979575 C16.970007,71.5549784 17.3624439,70.3118546 17.2359477,69.122348 C17.1094516,67.9338343 16.4660144,66.8009236 15.1163901,66.9439027 C13.7657697,67.0858889 13.3723368,68.3280197 13.498833,69.5165334 C13.6253291,70.70604 14.2707583,71.8409365 15.6213787,71.6979575 M14.9251518,65.1467349 C17.4560709,64.880635 19.0825924,66.5795046 19.3296085,68.9019219 C19.5756286,71.2233463 18.3425401,73.2260465 15.8116209,73.4931394 C13.2787097,73.7602323 11.6531843,72.0593768 11.4071643,69.7369595 C11.1601482,67.416528 12.3932367,65.4148207 14.9251518,65.1467349" id="Fill-19" fill="#FFFFFF" mask="url(#mask-2)"></path>
                            <polygon id="Fill-20" fill="#FFFFFF" mask="url(#mask-2)" points="19.7072045 64.8106348 25.6266269 64.1860942 25.8049168 65.8581552 21.9781591 66.2612768 22.1524648 67.8995789 25.4612855 67.5510674 25.6326031 69.1665325 22.3237824 69.515044 22.6514772 72.6020023 20.5578164 72.8214355"></polygon>
                            <polygon id="Fill-21" fill="#FFFFFF" mask="url(#mask-2)" points="36.0177382 64.9066492 33.6222795 65.1598413 34.2816532 71.3744673 32.1879924 71.5948934 31.5286188 65.3812604 29.130172 65.6334596 28.9399297 63.8362918 35.8264999 63.1084886"></polygon>
                            <polygon id="Fill-22" fill="#FFFFFF" mask="url(#mask-2)" points="36.3921469 63.0498076 38.4868037 62.8283885 38.7965699 65.747545 41.5545845 65.4566223 41.2448183 62.5374658 43.336487 62.3170397 44.188095 70.3278405 42.0954302 70.5492595 41.7448267 67.2498184 38.9868121 67.5407411 39.3384117 70.8401822 37.2427588 71.0606083"></polygon>
                            <polygon id="Fill-23" fill="#FFFFFF" mask="url(#mask-2)" points="44.4217642 62.2022593 50.8242625 61.5260873 51.0015563 63.1981484 46.6917228 63.6529013 46.8411277 65.0568765 50.7804371 64.6408471 50.9527507 66.2563123 47.0124453 66.6723417 47.1747987 68.1964591 51.5971839 67.7297912 51.7884222 69.5259661 45.2723762 70.21306"></polygon>
                            <path d="M57.7592399,67.0795342 L58.7492964,66.9752786 C60.3329884,66.7737178 60.896743,66.0925813 60.7264214,64.4890311 C60.5720363,63.0294529 59.709472,62.4059052 58.279169,62.5568276 L57.2891125,62.6620761 L57.7592399,67.0795342 Z M55.0052095,61.0853344 L58.461443,60.7209363 C60.9266239,60.4598009 62.5591216,61.8002299 62.8220742,64.2775412 C63.1009634,66.9018033 61.7533311,68.4735804 59.3130509,68.7317371 L55.8568174,69.0961352 L55.0052095,61.0853344 Z" id="Fill-24" fill="#FFFFFF" mask="url(#mask-2)"></path>
                            <path d="M66.0669496,65.0016707 L67.8896894,64.8090461 L66.7034145,62.0984009 L66.6795097,62.1013796 L66.0669496,65.0016707 Z M65.3976156,59.9884663 L67.5251415,59.7640686 L71.378792,67.4591239 L69.1964844,67.6884861 L68.5480671,66.3043691 L65.746227,66.6002564 L65.3936315,68.0896219 L63.2431968,68.3169984 L65.3976156,59.9884663 Z" id="Fill-25" fill="#FFFFFF" mask="url(#mask-2)"></path>
                            <polygon id="Fill-26" fill="#FFFFFF" mask="url(#mask-2)" points="74.5877106 64.1017961 74.904449 67.0864846 72.8127803 67.3079036 72.4950459 64.3232151 69.0368203 59.6049051 71.4093702 59.3536988 73.3536261 62.4396641 74.6066353 59.0161092 76.9801812 58.7658958"></polygon>
                        </g>
                    </g>
                </g>
            </g>
        </g>
    </g>
</svg>